<mxfile host="65bd71144e">
    <diagram id="uaYPCmaQldxIdWAY0GNB" name="Page-1">
        <mxGraphModel dx="754" dy="661" grid="1" gridSize="10" guides="1" tooltips="1" connect="1" arrows="1" fold="1" page="1" pageScale="1" pageWidth="827" pageHeight="1169" math="0" shadow="0">
            <root>
                <mxCell id="0"/>
                <mxCell id="1" parent="0"/>
                <mxCell id="2" value="" style="edgeStyle=none;html=1;" parent="1" source="3" target="12" edge="1">
                    <mxGeometry relative="1" as="geometry"/>
                </mxCell>
                <mxCell id="3" value="Input" style="rounded=0;whiteSpace=wrap;html=1;" parent="1" vertex="1">
                    <mxGeometry x="70" y="110" width="120" height="60" as="geometry"/>
                </mxCell>
                <mxCell id="4" style="edgeStyle=none;html=1;entryX=0.5;entryY=0;entryDx=0;entryDy=0;rounded=0;" parent="1" target="3" edge="1">
                    <mxGeometry relative="1" as="geometry">
                        <mxPoint x="320" y="90" as="sourcePoint"/>
                        <Array as="points">
                            <mxPoint x="130" y="90"/>
                        </Array>
                    </mxGeometry>
                </mxCell>
                <mxCell id="5" style="edgeStyle=none;rounded=0;html=1;entryX=0.5;entryY=0;entryDx=0;entryDy=0;" parent="1" target="11" edge="1">
                    <mxGeometry relative="1" as="geometry">
                        <mxPoint x="320" y="90" as="sourcePoint"/>
                        <Array as="points">
                            <mxPoint x="550" y="90"/>
                        </Array>
                    </mxGeometry>
                </mxCell>
                <mxCell id="6" value="" style="edgeStyle=none;rounded=0;html=1;" parent="1" source="7" target="9" edge="1">
                    <mxGeometry relative="1" as="geometry"/>
                </mxCell>
                <mxCell id="7" value="Rock, paper, scissors" style="rounded=0;whiteSpace=wrap;html=1;" parent="1" vertex="1">
                    <mxGeometry x="280" y="10" width="120" height="60" as="geometry"/>
                </mxCell>
                <mxCell id="24" style="edgeStyle=none;html=1;entryX=0.5;entryY=0;entryDx=0;entryDy=0;rounded=0;" edge="1" parent="1" target="21">
                    <mxGeometry relative="1" as="geometry">
                        <mxPoint x="340" y="180" as="sourcePoint"/>
                        <Array as="points">
                            <mxPoint x="270" y="180"/>
                        </Array>
                    </mxGeometry>
                </mxCell>
                <mxCell id="25" style="edgeStyle=none;html=1;entryX=0.5;entryY=0;entryDx=0;entryDy=0;rounded=0;" edge="1" parent="1" target="23">
                    <mxGeometry relative="1" as="geometry">
                        <mxPoint x="340" y="180" as="sourcePoint"/>
                        <Array as="points">
                            <mxPoint x="414" y="180"/>
                        </Array>
                    </mxGeometry>
                </mxCell>
                <mxCell id="26" value="" style="edgeStyle=none;rounded=0;html=1;endArrow=none;endFill=0;" edge="1" parent="1" source="9">
                    <mxGeometry relative="1" as="geometry">
                        <mxPoint x="340" y="180" as="targetPoint"/>
                    </mxGeometry>
                </mxCell>
                <mxCell id="9" value="Process" style="rounded=0;whiteSpace=wrap;html=1;" parent="1" vertex="1">
                    <mxGeometry x="280" y="110" width="120" height="60" as="geometry"/>
                </mxCell>
                <mxCell id="10" value="" style="edgeStyle=none;rounded=0;html=1;" parent="1" source="11" target="14" edge="1">
                    <mxGeometry relative="1" as="geometry"/>
                </mxCell>
                <mxCell id="11" value="Output" style="rounded=0;whiteSpace=wrap;html=1;" parent="1" vertex="1">
                    <mxGeometry x="490" y="110" width="120" height="60" as="geometry"/>
                </mxCell>
                <mxCell id="12" value="Get userInput" style="rounded=0;whiteSpace=wrap;html=1;" parent="1" vertex="1">
                    <mxGeometry x="70" y="200" width="120" height="60" as="geometry"/>
                </mxCell>
                <mxCell id="14" value="show the time calculated in the microwave" style="rounded=0;whiteSpace=wrap;html=1;" parent="1" vertex="1">
                    <mxGeometry x="490" y="200" width="120" height="60" as="geometry"/>
                </mxCell>
                <mxCell id="21" value="Check one of the food choices entered" style="rounded=0;whiteSpace=wrap;html=1;" parent="1" vertex="1">
                    <mxGeometry x="210" y="200" width="120" height="60" as="geometry"/>
                </mxCell>
                <mxCell id="23" value="Calculate the time for the given amount of food" style="rounded=0;whiteSpace=wrap;html=1;" vertex="1" parent="1">
                    <mxGeometry x="354" y="200" width="120" height="60" as="geometry"/>
                </mxCell>
            </root>
        </mxGraphModel>
    </diagram>
</mxfile>